<svg width="32" height="32" viewBox="0 0 32 32" fill="none" xmlns="http://www.w3.org/2000/svg">
<path d="M2.30353 2.42412C2.16957 1.88833 1.62663 1.56258 1.09084 1.69654C0.555047 1.8305 0.229299 2.37345 0.36326 2.90924L1.76572 8.51854L3.0708 13.9638C3.62572 16.2793 4.06252 18.1018 4.58085 19.5177C5.11253 20.97 5.76454 22.0975 6.81064 22.9621C6.90092 23.0367 6.99289 23.1093 7.08649 23.1797C8.1711 23.9955 9.41952 24.3667 10.9558 24.5453C12.4534 24.7193 14.3275 24.7193 16.7084 24.7193H17.4998C19.5599 24.7193 21.1815 24.7193 22.4879 24.5872C23.8261 24.4519 24.9271 24.1711 25.9179 23.5507C26.3879 23.2565 26.8246 22.9121 27.2203 22.5236C28.0015 21.7567 28.5163 20.8254 28.9427 19.6667H22.6669C22.1146 19.6667 21.6669 19.219 21.6669 18.6667C21.6669 18.1144 22.1146 17.6667 22.6669 17.6667H29.56C29.723 17.0607 29.8879 16.3958 30.0645 15.6667L18.6669 15.6667C18.1146 15.6667 17.6669 15.219 17.6669 14.6667C17.6669 14.1144 18.1146 13.6667 18.6669 13.6667L30.5433 13.6667C30.7414 12.8223 30.8966 12.098 30.9669 11.4834C31.0626 10.6463 31.0235 9.84932 30.6057 9.12161C30.427 8.81036 30.2035 8.52704 29.9425 8.2807C29.3322 7.70476 28.5663 7.48103 27.73 7.37898C26.9241 7.28066 25.9004 7.28068 24.6583 7.28071L3.5178 7.28071L2.30353 2.42412Z" fill="#2D264B"/>
<path d="M12.5616 29.3333C13.3367 29.3333 13.9651 28.705 13.9651 27.9298C13.9651 27.1547 13.3367 26.5263 12.5616 26.5263C11.7865 26.5263 11.1581 27.1547 11.1581 27.9298C11.1581 28.705 11.7865 29.3333 12.5616 29.3333Z" fill="#2D264B"/>
<path d="M20.9827 29.3333C21.7578 29.3333 22.3862 28.705 22.3862 27.9298C22.3862 27.1547 21.7578 26.5263 20.9827 26.5263C20.2075 26.5263 19.5791 27.1547 19.5791 27.9298C19.5791 28.705 20.2075 29.3333 20.9827 29.3333Z" fill="#2D264B"/>
</svg>
