<svg width="32" height="32" viewBox="0 0 32 32" fill="none" xmlns="http://www.w3.org/2000/svg">
<path d="M14.3333 20C14.3333 19.0795 15.0795 18.3334 16 18.3334C16.9205 18.3334 17.6667 19.0795 17.6667 20C17.6667 20.9205 16.9205 21.6667 16 21.6667C15.0795 21.6667 14.3333 20.9205 14.3333 20Z" fill="#2D264B"/>
<path fill-rule="evenodd" clip-rule="evenodd" d="M16 1.66669C11.7658 1.66669 8.33333 5.09917 8.33333 9.33335V10.8183C8.33333 10.9074 8.34498 10.9937 8.36683 11.0759C6.45204 11.7795 4.95955 13.3243 4.32629 15.2732C4 16.2775 4 17.5183 4 20C4 22.4817 4 23.7226 4.32629 24.7268C4.98574 26.7564 6.57697 28.3476 8.60655 29.0071C9.61077 29.3334 10.8516 29.3334 13.3333 29.3334H18.6667C21.1484 29.3334 22.3892 29.3334 23.3934 29.0071C25.423 28.3476 27.0143 26.7564 27.6737 24.7268C28 23.7226 28 22.4817 28 20C28 17.5183 28 16.2775 27.6737 15.2732C27.0405 13.3243 25.548 11.7795 23.6332 11.0759C23.655 10.9937 23.6667 10.9074 23.6667 10.8183V9.33335C23.6667 5.09917 20.2342 1.66669 16 1.66669ZM18.6667 10.6667C19.9537 10.6667 20.907 10.6667 21.6667 10.7122V9.33335C21.6667 6.20374 19.1296 3.66669 16 3.66669C12.8704 3.66669 10.3333 6.20374 10.3333 9.33335V10.7122C11.093 10.6667 12.0463 10.6667 13.3333 10.6667H18.6667ZM12.3333 20C12.3333 17.975 13.975 16.3334 16 16.3334C18.025 16.3334 19.6667 17.975 19.6667 20C19.6667 22.0251 18.025 23.6667 16 23.6667C13.975 23.6667 12.3333 22.0251 12.3333 20Z" fill="#2D264B"/>
</svg>
