<svg width="206" height="70" viewBox="0 0 206 70" fill="none" xmlns="http://www.w3.org/2000/svg">
<mask id="mask0_0_120" style="mask-type:luminance" maskUnits="userSpaceOnUse" x="0" y="0" width="63" height="60">
<path d="M0 0H62.7428V59.4202H0V0Z" fill="white"/>
</mask>
<g mask="url(#mask0_0_120)">
<path d="M61.6915 18.2666L32.5427 0.351224C31.8272 -0.0879404 30.9197 -0.0879404 30.2048 0.351224L1.05835 18.2666C0.398715 18.6743 -0.00598145 19.3939 -0.00598145 20.1701V57.146C-0.00598145 58.3785 0.994171 59.3787 2.22668 59.3787C3.45979 59.3787 4.45994 58.3785 4.45994 57.146V21.4198L31.3737 4.87657L58.2905 21.4198V57.146C58.2905 58.3785 59.2907 59.3787 60.5238 59.3787C61.7563 59.3787 62.7564 58.3785 62.7564 57.146V20.1701C62.7564 19.3939 62.3517 18.6743 61.6915 18.2666Z" fill="#FFA800"/>
</g>
<path d="M35.2567 66.3488V27.5835C35.2567 26.0869 34.0434 24.8737 32.5468 24.8737C31.0502 24.8737 29.8369 26.0869 29.8369 27.5835V60.787C29.8369 62.7467 28.2898 64.3569 26.3317 64.4352L18.427 64.7514H10.4971C9.04774 64.7514 7.8728 65.9263 7.8728 67.3757C7.8728 68.825 9.04774 70 10.4971 70H31.6055C33.622 70 35.2567 68.3653 35.2567 66.3488Z" fill="black"/>
<path d="M95.2228 45.82C89.3988 45.82 87.1588 42.524 87.1588 37.692V36.796H90.8068V37.948C90.8068 41.148 91.4468 42.492 95.1268 42.492C98.7748 42.492 99.4148 41.148 99.4148 37.948V24.06H103.095V37.692C103.095 42.524 100.791 45.82 95.2228 45.82ZM110.022 45.5H106.566V24.06H110.022V33.148H120.838V24.06H124.294V45.5H120.838V36.252H110.022V45.5ZM134.735 45.82C129.839 45.82 126.799 42.492 126.799 37.532C126.799 32.604 129.839 29.276 134.735 29.276C139.599 29.276 142.543 32.604 142.543 37.532C142.543 42.492 139.599 45.82 134.735 45.82ZM134.735 42.748C138.063 42.748 139.215 41.116 139.215 37.532C139.215 33.98 138.063 32.348 134.735 32.348C131.375 32.348 130.191 33.98 130.191 37.532C130.191 41.116 131.375 42.748 134.735 42.748ZM148.582 45.5H145.126V29.596H148.294V32.572H148.422C149.158 30.876 150.822 29.276 153.862 29.276C156.646 29.276 158.374 30.556 159.142 32.572H159.238C159.974 30.908 161.606 29.276 164.742 29.276C168.838 29.276 170.662 31.9 170.662 35.516V45.5H167.206V36.284C167.206 33.436 166.342 32.252 163.462 32.252C160.838 32.252 159.622 33.34 159.622 36.252V45.5H156.166V36.284C156.166 33.436 155.302 32.252 152.422 32.252C149.798 32.252 148.582 33.34 148.582 36.22V45.5ZM180.98 45.82C175.732 45.82 173.268 42.492 173.268 37.532C173.268 32.604 176.212 29.276 180.948 29.276C185.236 29.276 188.244 31.836 188.244 36.188C188.244 37.02 188.148 37.884 188.052 38.364H176.5C176.628 41.276 177.684 42.748 181.012 42.748C183.668 42.748 184.692 41.852 184.692 40.412V40.156H188.116V40.444C188.116 43.708 185.268 45.82 180.98 45.82ZM180.884 32.188C177.876 32.188 176.724 33.596 176.532 36.06H184.948C185.076 33.34 183.604 32.188 180.884 32.188ZM197.846 45.82C193.206 45.82 190.774 43.996 190.774 40.124V40.06H194.102V40.636C194.102 42.364 194.87 43.004 197.91 43.004C200.47 43.004 200.95 42.428 200.95 41.244C200.95 39.964 200.182 39.58 197.846 39.164L195.382 38.748C192.534 38.236 190.742 36.956 190.742 34.076C190.742 31.196 193.11 29.276 197.27 29.276C201.014 29.276 203.83 31.132 203.83 34.748V35.036H200.534V34.652C200.534 33.18 200.022 32.124 197.174 32.124C194.646 32.124 194.038 32.796 194.038 34.012C194.038 35.228 194.614 35.58 196.854 36.028L199.542 36.54C202.614 37.148 204.214 38.524 204.214 41.148C204.214 44.092 201.878 45.82 197.846 45.82Z" fill="black"/>
</svg>
